<svg width="98" height="29" viewBox="0 0 98 29" fill="none" xmlns="http://www.w3.org/2000/svg">
    <path class="dot" d="M11.4707 16.8691C11.2539 16.8691 11.1191 16.7021 11.1191 16.4473V12.3281C11.1191 12.0732 11.2539 11.9092 11.4707 11.9092C11.5879 11.9092 11.6875 11.9531 11.8047 12.0205L15.2207 13.998C15.4639 14.1387 15.5488 14.2324 15.5488 14.3877C15.5488 14.543 15.4639 14.6367 15.2207 14.7803L11.8047 16.7549C11.6875 16.8223 11.5879 16.8691 11.4707 16.8691Z" fill="currentColor"/>
    <path d="M21.7305 10.1099L23.2183 16.5283L25.0015 10.1099H26.1616L27.9448 16.5283L29.4326 10.1099H30.6035L28.5303 18H27.4077L25.5869 11.458L23.7554 18H22.6328L20.5703 10.1099H21.7305ZM35.2388 14.7666L34.041 11.2808L32.7681 14.7666H35.2388ZM33.4824 10.1099H34.6909L37.5537 18H36.3828L35.5825 15.6367H32.4619L31.6079 18H30.5122L33.4824 10.1099ZM43.4512 10.1099V11.0498H40.7925V18H39.7075V11.0498H37.0488V10.1099H43.4512ZM47.7588 9.89502C48.7578 9.89502 49.533 10.1582 50.0845 10.6846C50.6359 11.2109 50.9421 11.8089 51.0029 12.4785H49.9609C49.8428 11.9701 49.6064 11.5672 49.252 11.27C48.901 10.9728 48.4069 10.8242 47.7695 10.8242C46.9925 10.8242 46.3641 11.0981 45.8843 11.646C45.408 12.1903 45.1699 13.0264 45.1699 14.1543C45.1699 15.0781 45.3848 15.8283 45.8145 16.4048C46.2477 16.9777 46.8923 17.2642 47.748 17.2642C48.5358 17.2642 49.1356 16.9616 49.5474 16.3564C49.7658 16.0378 49.9287 15.6188 50.0361 15.0996H51.0781C50.985 15.9303 50.6771 16.6268 50.1543 17.189C49.5277 17.8657 48.6826 18.2041 47.6191 18.2041C46.7025 18.2041 45.9326 17.9266 45.3096 17.3716C44.4896 16.6375 44.0796 15.5042 44.0796 13.9717C44.0796 12.8079 44.3875 11.8537 45.0034 11.1089C45.6694 10.2996 46.5879 9.89502 47.7588 9.89502ZM52.4102 10.1099H53.4897V13.3701H57.5933V10.1099H58.6729V18H57.5933V14.3101H53.4897V18H52.4102V10.1099ZM63.4961 10.1099H68.9692V11.0767H64.5649V13.4722H68.4375V14.4121H64.5649V18H63.4961V10.1099ZM70.3604 10.1099H71.4399V18H70.3604V10.1099ZM73.1802 10.1099H74.249V17.0601H78.2451V18H73.1802V10.1099ZM79.2764 10.1099H80.8071L83.0737 16.7808L85.3242 10.1099H86.8389V18H85.8237V13.3433C85.8237 13.1821 85.8273 12.9154 85.8345 12.543C85.8416 12.1706 85.8452 11.7713 85.8452 11.3452L83.5947 18H82.5366L80.27 11.3452V11.5869C80.27 11.7803 80.2736 12.0757 80.2808 12.4731C80.2915 12.867 80.2969 13.1571 80.2969 13.3433V18H79.2764V10.1099Z" fill="currentColor"/>
    <path class="edge" d="M1 28H9" stroke="currentColor" stroke-linecap="round"/>
    <path class="edge" d="M1 28L1 20" stroke="currentColor" stroke-linecap="round"/>
    <path class="edge" d="M97 28L89 28" stroke="currentColor" stroke-linecap="round"/>
    <path class="edge" d="M97 28L97 20" stroke="currentColor" stroke-linecap="round"/>
    <path class="edge" d="M1 1L1 9" stroke="currentColor" stroke-linecap="round"/>
    <path class="edge" d="M1 1H9" stroke="currentColor" stroke-linecap="round"/>
    <path class="edge" d="M97 1L89 0.999999" stroke="currentColor" stroke-linecap="round"/>
    <path class="edge" d="M97 1L97 9" stroke="currentColor" stroke-linecap="round"/>
    <style>
        path {
          stroke-dasharray: 2 10;
          animation: bounce 5s ease-in-out forwards infinite;
        }

        .dot {
          animation: fadeInOut 1s ease-in-out alternate-reverse infinite;

        }

        @keyframes bounce {
          0% {
            stroke-dasharray: 2 10;
          }

          20% {
            stroke-dasharray: 10 10;
          }

          40% {
            stroke-dasharray: 2 10;
          }
          100% {
            stroke-dasharray: 2 10;
          }
        }

        @keyframes fadeInOut {
            to {
              opacity: 0
            }
    </style>
</svg>
