<svg width="180" height="18" viewBox="0 0 180 18" fill="none" xmlns="http://www.w3.org/2000/svg">
<g style="mix-blend-mode:difference">
<path d="M166.272 16.7446V0.280762H169.506L176.245 11.2754V0.280762H179.333V16.7446H175.998L169.36 6.0083V16.7446H166.272Z" fill="white"/>
</g>
<g style="mix-blend-mode:difference">
<path d="M148.123 8.61377C148.123 6.93669 148.374 5.52913 148.876 4.39111C149.25 3.55257 149.759 2.80013 150.403 2.13379C151.054 1.46745 151.766 0.973307 152.537 0.651367C153.562 0.217122 154.745 0 156.086 0C158.511 0 160.45 0.752441 161.903 2.25732C163.363 3.76221 164.093 5.85482 164.093 8.53516C164.093 11.193 163.37 13.2744 161.925 14.7793C160.48 16.2767 158.549 17.0254 156.13 17.0254C153.682 17.0254 151.736 16.2804 150.291 14.7905C148.846 13.2931 148.123 11.2342 148.123 8.61377ZM151.548 8.50146C151.548 10.3657 151.979 11.7808 152.84 12.7466C153.701 13.7049 154.794 14.1841 156.119 14.1841C157.444 14.1841 158.53 13.7087 159.376 12.7578C160.23 11.7995 160.656 10.3657 160.656 8.45654C160.656 6.56982 160.241 5.16227 159.41 4.23389C158.586 3.3055 157.489 2.84131 156.119 2.84131C154.749 2.84131 153.645 3.31299 152.806 4.25635C151.968 5.19222 151.548 6.60726 151.548 8.50146Z" fill="white"/>
</g>
<g style="mix-blend-mode:difference">
<path d="M133.074 11.3877L136.308 11.0732C136.503 12.1589 136.896 12.9562 137.487 13.4653C138.086 13.9744 138.891 14.229 139.902 14.229C140.973 14.229 141.777 14.0044 142.317 13.5552C142.863 13.0985 143.136 12.5669 143.136 11.9604C143.136 11.5711 143.02 11.2417 142.788 10.9722C142.564 10.6951 142.167 10.4556 141.598 10.2534C141.208 10.1187 140.321 9.87907 138.936 9.53467C137.154 9.09294 135.904 8.55013 135.185 7.90625C134.174 7.00033 133.669 5.896 133.669 4.59326C133.669 3.75472 133.905 2.97233 134.377 2.24609C134.856 1.51237 135.541 0.95459 136.432 0.572754C137.33 0.190918 138.412 0 139.677 0C141.744 0 143.297 0.452962 144.338 1.35889C145.386 2.26481 145.936 3.47396 145.989 4.98633L142.665 5.13232C142.522 4.2863 142.215 3.67985 141.744 3.31299C141.28 2.93864 140.58 2.75146 139.644 2.75146C138.678 2.75146 137.922 2.94987 137.375 3.34668C137.023 3.60124 136.847 3.94189 136.847 4.36865C136.847 4.75798 137.012 5.09115 137.341 5.36816C137.761 5.72005 138.779 6.08691 140.396 6.46875C142.013 6.85059 143.207 7.2474 143.979 7.65918C144.757 8.06348 145.364 8.62126 145.798 9.33252C146.24 10.0363 146.461 10.9085 146.461 11.9492C146.461 12.8926 146.199 13.776 145.674 14.5996C145.15 15.4232 144.409 16.0371 143.451 16.4414C142.492 16.8382 141.298 17.0366 139.868 17.0366C137.787 17.0366 136.188 16.5575 135.073 15.5991C133.957 14.6333 133.291 13.2295 133.074 11.3877Z" fill="white"/>
</g>
<g style="mix-blend-mode:difference">
<path d="M119.035 16.7446V0.280762H124.37C126.391 0.280762 127.709 0.363118 128.323 0.527832C129.266 0.774902 130.056 1.31396 130.693 2.14502C131.329 2.96859 131.647 4.03548 131.647 5.3457C131.647 6.35645 131.464 7.20622 131.097 7.89502C130.73 8.58382 130.262 9.12663 129.693 9.52344C129.131 9.91276 128.559 10.1711 127.975 10.2983C127.181 10.4556 126.032 10.5342 124.527 10.5342H122.359V16.7446H119.035ZM122.359 3.06592V7.73779H124.179C125.489 7.73779 126.365 7.65169 126.807 7.47949C127.248 7.30729 127.593 7.03776 127.84 6.6709C128.095 6.30404 128.222 5.87728 128.222 5.39062C128.222 4.79167 128.046 4.29753 127.694 3.9082C127.342 3.51888 126.897 3.27555 126.358 3.17822C125.961 3.10335 125.163 3.06592 123.965 3.06592H122.359Z" fill="white"/>
</g>
<g style="mix-blend-mode:difference">
<path d="M100.291 16.7446V0.280762H105.266L108.254 11.5112L111.207 0.280762H116.194V16.7446H113.105V3.78467L109.837 16.7446H106.636L103.38 3.78467V16.7446H100.291Z" fill="white"/>
</g>
<g style="mix-blend-mode:difference">
<path d="M82.2209 8.61377C82.2209 6.93669 82.4718 5.52913 82.9734 4.39111C83.3477 3.55257 83.8569 2.80013 84.5007 2.13379C85.1521 1.46745 85.8634 0.973307 86.6345 0.651367C87.6602 0.217122 88.8432 0 90.1833 0C92.6091 0 94.5483 0.752441 96.0007 2.25732C97.4607 3.76221 98.1907 5.85482 98.1907 8.53516C98.1907 11.193 97.4682 13.2744 96.0232 14.7793C94.5782 16.2767 92.6466 17.0254 90.2283 17.0254C87.78 17.0254 85.8334 16.2804 84.3884 14.7905C82.9434 13.2931 82.2209 11.2342 82.2209 8.61377ZM85.6462 8.50146C85.6462 10.3657 86.0767 11.7808 86.9377 12.7466C87.7987 13.7049 88.8918 14.1841 90.217 14.1841C91.5422 14.1841 92.6278 13.7087 93.4739 12.7578C94.3274 11.7995 94.7541 10.3657 94.7541 8.45654C94.7541 6.56982 94.3386 5.16227 93.5076 4.23389C92.684 3.3055 91.5872 2.84131 90.217 2.84131C88.8469 2.84131 87.7426 3.31299 86.9041 4.25635C86.0655 5.19222 85.6462 6.60726 85.6462 8.50146Z" fill="white"/>
</g>
<g style="mix-blend-mode:difference">
<path d="M66.7449 16.7446V0.280762H70.0691V6.76074H76.5828V0.280762H79.907V16.7446H76.5828V9.5459H70.0691V16.7446H66.7449Z" fill="white"/>
</g>
<g style="mix-blend-mode:difference">
<path d="M56.8392 16.7446V3.06592H51.9539V0.280762H65.0374V3.06592H60.1634V16.7446H56.8392Z" fill="white"/>
</g>
<g style="mix-blend-mode:difference">
<path d="M31.0643 16.7446V0.280762H34.2987L41.037 11.2754V0.280762H44.1254V16.7446H40.7899L34.1527 6.0083V16.7446H31.0643Z" fill="white"/>
</g>
<g style="mix-blend-mode:difference">
<path d="M16.1498 16.7446V0.280762H28.3574V3.06592H19.4741V6.71582H27.7397V9.48975H19.4741V13.9707H28.6718V16.7446H16.1498Z" fill="white"/>
</g>
<g style="mix-blend-mode:difference">
<path d="M0 0.280762H6.58105C7.88379 0.280762 8.85335 0.336914 9.48975 0.449219C10.1336 0.554036 10.7064 0.778646 11.208 1.12305C11.7171 1.46745 12.1401 1.9279 12.4771 2.50439C12.814 3.07341 12.9824 3.71354 12.9824 4.4248C12.9824 5.19596 12.7728 5.90348 12.3535 6.54736C11.9417 7.19124 11.3802 7.67415 10.6689 7.99609C11.6722 8.28809 12.4434 8.78597 12.9824 9.48975C13.5215 10.1935 13.791 11.0208 13.791 11.9717C13.791 12.7204 13.6151 13.4504 13.2632 14.1616C12.9188 14.8654 12.4434 15.4307 11.8369 15.8574C11.238 16.2767 10.4967 16.535 9.61328 16.6323C9.05925 16.6922 7.72282 16.7297 5.604 16.7446H0V0.280762ZM3.32422 3.021V6.82812H5.50293C6.79818 6.82812 7.60303 6.80941 7.91748 6.77197C8.48649 6.70459 8.93197 6.50993 9.25391 6.18799C9.58333 5.85856 9.74805 5.42806 9.74805 4.89648C9.74805 4.38737 9.60579 3.97559 9.32129 3.66113C9.04427 3.33919 8.62874 3.14453 8.07471 3.07715C7.74528 3.03971 6.79818 3.021 5.2334 3.021H3.32422ZM3.32422 9.56836V13.9707H6.40137C7.59928 13.9707 8.35921 13.937 8.68115 13.8696C9.17529 13.7798 9.57585 13.5627 9.88281 13.2183C10.1973 12.8664 10.3545 12.3984 10.3545 11.8145C10.3545 11.3203 10.2347 10.901 9.99512 10.5566C9.75553 10.2122 9.40739 9.96143 8.95068 9.8042C8.50146 9.64697 7.52067 9.56836 6.0083 9.56836H3.32422Z" fill="white"/>
</g>
</svg>
